<svg width="11" height="12" viewBox="0 0 11 12" fill="none" xmlns="http://www.w3.org/2000/svg">
<path d="M1.57407 0.61377C1.20167 0.61377 0.900806 0.914636 0.900806 1.28704V2.63357C0.900806 3.00597 1.20167 3.30684 1.57407 3.30684H3.25724V3.98011H2.05798C1.39313 3.98011 0.827168 4.46612 0.726178 5.12466L0.250683 8.27429C0.235955 8.37318 0.227539 8.47417 0.227539 8.57516V10.0395C0.227539 10.7822 0.831376 11.386 1.57407 11.386H9.65328C10.396 11.386 10.9998 10.7822 10.9998 10.0395V8.57516C10.9998 8.47417 10.9914 8.37318 10.9767 8.27219L10.4991 5.12466C10.4002 4.46612 9.83422 3.98011 9.16937 3.98011H4.60378V3.30684H6.28695C6.65935 3.30684 6.96021 3.00597 6.96021 2.63357V1.28704C6.96021 0.914636 6.65935 0.61377 6.28695 0.61377H1.57407ZM2.24734 1.62367H5.61368C5.79883 1.62367 5.95031 1.77516 5.95031 1.9603C5.95031 2.14545 5.79883 2.29694 5.61368 2.29694H2.24734C2.06219 2.29694 1.91071 2.14545 1.91071 1.9603C1.91071 1.77516 2.06219 1.62367 2.24734 1.62367ZM1.57407 9.70288C1.57407 9.51773 1.72556 9.36625 1.91071 9.36625H9.31665C9.5018 9.36625 9.65328 9.51773 9.65328 9.70288C9.65328 9.88803 9.5018 10.0395 9.31665 10.0395H1.91071C1.72556 10.0395 1.57407 9.88803 1.57407 9.70288ZM2.58397 6.16823C2.45005 6.16823 2.32162 6.11503 2.22692 6.02033C2.13222 5.92563 2.07902 5.7972 2.07902 5.66327C2.07902 5.52935 2.13222 5.40092 2.22692 5.30622C2.32162 5.21152 2.45005 5.15832 2.58397 5.15832C2.7179 5.15832 2.84633 5.21152 2.94103 5.30622C3.03573 5.40092 3.08893 5.52935 3.08893 5.66327C3.08893 5.7972 3.03573 5.92563 2.94103 6.02033C2.84633 6.11503 2.7179 6.16823 2.58397 6.16823ZM5.10873 5.66327C5.10873 5.7972 5.05553 5.92563 4.96083 6.02033C4.86613 6.11503 4.7377 6.16823 4.60378 6.16823C4.46986 6.16823 4.34142 6.11503 4.24672 6.02033C4.15203 5.92563 4.09883 5.7972 4.09883 5.66327C4.09883 5.52935 4.15203 5.40092 4.24672 5.30622C4.34142 5.21152 4.46986 5.15832 4.60378 5.15832C4.7377 5.15832 4.86613 5.21152 4.96083 5.30622C5.05553 5.40092 5.10873 5.52935 5.10873 5.66327ZM3.59388 7.85139C3.45995 7.85139 3.33152 7.79819 3.23682 7.7035C3.14213 7.6088 3.08893 7.48036 3.08893 7.34644C3.08893 7.21252 3.14213 7.08409 3.23682 6.98939C3.33152 6.89469 3.45995 6.84149 3.59388 6.84149C3.7278 6.84149 3.85623 6.89469 3.95093 6.98939C4.04563 7.08409 4.09883 7.21252 4.09883 7.34644C4.09883 7.48036 4.04563 7.6088 3.95093 7.7035C3.85623 7.79819 3.7278 7.85139 3.59388 7.85139ZM7.12853 5.66327C7.12853 5.7972 7.07533 5.92563 6.98063 6.02033C6.88594 6.11503 6.7575 6.16823 6.62358 6.16823C6.48966 6.16823 6.36122 6.11503 6.26653 6.02033C6.17183 5.92563 6.11863 5.7972 6.11863 5.66327C6.11863 5.52935 6.17183 5.40092 6.26653 5.30622C6.36122 5.21152 6.48966 5.15832 6.62358 5.15832C6.7575 5.15832 6.88594 5.21152 6.98063 5.30622C7.07533 5.40092 7.12853 5.52935 7.12853 5.66327ZM5.61368 7.85139C5.47976 7.85139 5.35132 7.79819 5.25662 7.7035C5.16193 7.6088 5.10873 7.48036 5.10873 7.34644C5.10873 7.21252 5.16193 7.08409 5.25662 6.98939C5.35132 6.89469 5.47976 6.84149 5.61368 6.84149C5.7476 6.84149 5.87604 6.89469 5.97073 6.98939C6.06543 7.08409 6.11863 7.21252 6.11863 7.34644C6.11863 7.48036 6.06543 7.6088 5.97073 7.7035C5.87604 7.79819 5.7476 7.85139 5.61368 7.85139ZM9.14833 5.66327C9.14833 5.72959 9.13527 5.79525 9.10989 5.85651C9.08452 5.91777 9.04732 5.97344 9.00043 6.02033C8.95355 6.06722 8.89788 6.10441 8.83662 6.12979C8.77535 6.15516 8.70969 6.16823 8.64338 6.16823C8.57707 6.16823 8.51141 6.15516 8.45014 6.12979C8.38888 6.10441 8.33322 6.06722 8.28633 6.02033C8.23944 5.97344 8.20224 5.91777 8.17687 5.85651C8.15149 5.79525 8.13843 5.72959 8.13843 5.66327C8.13843 5.59696 8.15149 5.5313 8.17687 5.47004C8.20224 5.40878 8.23944 5.35311 8.28633 5.30622C8.33322 5.25933 8.38888 5.22214 8.45014 5.19676C8.51141 5.17139 8.57707 5.15832 8.64338 5.15832C8.70969 5.15832 8.77535 5.17139 8.83662 5.19676C8.89788 5.22214 8.95355 5.25933 9.00043 5.30622C9.04732 5.35311 9.08452 5.40878 9.10989 5.47004C9.13527 5.5313 9.14833 5.59696 9.14833 5.66327ZM7.63348 7.85139C7.49956 7.85139 7.37112 7.79819 7.27643 7.7035C7.18173 7.6088 7.12853 7.48036 7.12853 7.34644C7.12853 7.21252 7.18173 7.08409 7.27643 6.98939C7.37112 6.89469 7.49956 6.84149 7.63348 6.84149C7.7674 6.84149 7.89584 6.89469 7.99053 6.98939C8.08523 7.08409 8.13843 7.21252 8.13843 7.34644C8.13843 7.48036 8.08523 7.6088 7.99053 7.7035C7.89584 7.79819 7.7674 7.85139 7.63348 7.85139Z" fill="#0C69C0"/>
</svg>
